<svg width="17" height="16" viewBox="0 0 17 16" fill="none" xmlns="http://www.w3.org/2000/svg">
<path d="M7.42619 5.25469e-09C8.63537 -4.8654e-05 9.82049 0.337848 10.8478 0.975558C11.8751 1.61327 12.7038 2.52541 13.2402 3.60904C13.7767 4.69267 13.9995 5.90466 13.8837 7.10823C13.7679 8.31181 13.318 9.45905 12.5847 10.4205L16.6872 14.5245C16.8423 14.6802 16.9323 14.889 16.939 15.1087C16.9458 15.3283 16.8686 15.5423 16.7233 15.7071C16.5779 15.8719 16.3753 15.9753 16.1565 15.9961C15.9378 16.0169 15.7193 15.9537 15.5454 15.8193L15.4641 15.7475L11.36 11.6452C10.5409 12.2698 9.5848 12.6903 8.5709 12.872C7.55699 13.0537 6.51439 12.9914 5.52937 12.6901C4.54435 12.3889 3.64522 11.8574 2.90639 11.1397C2.16755 10.422 1.61026 9.53868 1.28062 8.56283C0.950971 7.58698 0.858456 6.54665 1.01072 5.52795C1.16299 4.50924 1.55567 3.54143 2.15626 2.70462C2.75684 1.8678 3.54808 1.18602 4.46449 0.715706C5.3809 0.24539 6.39614 5.43643e-05 7.42619 5.25469e-09ZM7.42619 1.72983C6.16451 1.72983 4.9545 2.23102 4.06235 3.12314C3.1702 4.01525 2.669 5.22522 2.669 6.48687C2.669 7.74851 3.1702 8.95849 4.06235 9.8506C4.9545 10.7427 6.16451 11.2439 7.42619 11.2439C8.68788 11.2439 9.89789 10.7427 10.79 9.8506C11.6822 8.95849 12.1834 7.74851 12.1834 6.48687C12.1834 5.22522 11.6822 4.01525 10.79 3.12314C9.89789 2.23102 8.68788 1.72983 7.42619 1.72983Z" fill="#ADADAD"/>
</svg>
